<?xml version="1.0" ?>
<!DOCTYPE svg  PUBLIC '-//W3C//DTD SVG 1.1//EN'  'http://www.w3.org/Graphics/SVG/1.1/DTD/svg11.dtd'>
<!-- Uploaded to: SVG Repo, www.svgrepo.com, Generator: SVG Repo Mixer Tools -->
<svg fill="#000000" width="800px" height="800px" viewBox="0 0 512 512" version="1.1" xml:space="preserve" xmlns="http://www.w3.org/2000/svg" xmlns:xlink="http://www.w3.org/1999/xlink">
<g id="B_-_127_x2C__Chart_x2C__Analytics_x2C__business_x2C__computer_x2C__diagram_x2C__marketing_x2C__trends">
<g>
<path d="M117.163,116.807c-1.96,0-3.558-1.557-3.558-3.514s1.598-3.514,3.558-3.514    h36.301c1.868,0,3.512,1.557,3.512,3.514s-1.645,3.514-3.512,3.514H117.163z M117.163,132.021c-1.96,0-3.558-1.602-3.558-3.515    c0-1.957,1.598-3.513,3.558-3.513h58.809c1.96,0,3.559,1.557,3.559,3.513c0,1.914-1.599,3.515-3.559,3.515H117.163z     M117.163,147.235c-1.96,0-3.558-1.602-3.558-3.56c0-1.912,1.598-3.513,3.558-3.513h78.469c1.915,0,3.473,1.602,3.473,3.513    c0,1.958-1.559,3.56-3.473,3.56H117.163z M117.163,162.404c-1.96,0-3.558-1.558-3.558-3.514c0-1.958,1.598-3.515,3.558-3.515    h36.301c1.868,0,3.512,1.558,3.512,3.515c0,1.957-1.645,3.514-3.512,3.514H117.163z M465.973,78.861    c-3.52-3.471-8.274-5.606-13.484-5.606H89.715c-5.203,0-10.011,2.135-13.477,5.606c-3.473,3.469-5.604,8.229-5.604,13.478v261.172    c0,5.248,2.131,10.054,5.604,13.479c3.466,3.47,8.274,5.649,13.477,5.649h362.773c5.21,0,9.965-2.18,13.438-5.604    c3.467-3.47,5.604-8.275,5.604-13.523V92.339C471.53,87.09,469.393,82.331,465.973,78.861z M448.312,302.398V96.254H92.964    v206.144H448.312z M455.383,92.74v213.172c0,1.958-1.56,3.559-3.512,3.559H89.445c-1.953,0-3.512-1.601-3.512-3.559V92.74    c0-1.958,1.56-3.515,3.512-3.515h362.426C453.823,89.225,455.383,90.783,455.383,92.74z M274.641,349.019    c-0.935-0.89-2.184-1.423-3.559-1.423c-1.382,0-2.671,0.533-3.559,1.423c-0.895,0.934-1.428,2.179-1.428,3.56    c0,1.379,0.533,2.624,1.428,3.514c0.888,0.934,2.177,1.468,3.559,1.468c1.375,0,2.624-0.534,3.559-1.468    c0.887-0.89,1.42-2.135,1.42-3.514C276.061,351.197,275.527,349.952,274.641,349.019z M271.082,340.521    c3.289,0,6.36,1.379,8.537,3.56c2.139,2.135,3.52,5.16,3.52,8.497c0,3.336-1.381,6.316-3.52,8.496    c-2.177,2.18-5.248,3.559-8.537,3.559c-3.295,0-6.321-1.379-8.498-3.559c-2.178-2.18-3.513-5.16-3.513-8.496    c0-3.337,1.335-6.362,3.466-8.497C264.761,341.9,267.748,340.521,271.082,340.521z M193.586,211.559h-19.397v41.994h19.397    V211.559z M170.724,204.486h26.381c1.908,0,3.514,1.602,3.514,3.515v49.067c0,1.912-1.605,3.514-3.514,3.514h-26.381    c-1.96,0-3.559-1.602-3.559-3.514v-49.067C167.165,206.088,168.763,204.486,170.724,204.486z M236.958,162.493h-19.351v91.06    h19.351V162.493z M214.048,155.463h26.428c1.954,0,3.512,1.558,3.512,3.515v98.09c0,1.912-1.558,3.514-3.512,3.514h-26.428    c-1.953,0-3.512-1.602-3.512-3.514v-98.09C210.536,157.021,212.096,155.463,214.048,155.463z M280.336,187.983h-19.35v65.57h19.35    V187.983z M257.467,180.91h26.428c1.908,0,3.467,1.557,3.467,3.514v72.645c0,1.912-1.559,3.514-3.467,3.514h-26.428    c-1.954,0-3.559-1.602-3.559-3.514v-72.645C253.908,182.466,255.513,180.91,257.467,180.91z M323.709,205.91h-19.352v47.643    h19.352V205.91z M300.799,198.837h26.422c1.96,0,3.559,1.602,3.559,3.514v54.717c0,1.912-1.599,3.514-3.559,3.514h-26.422    c-1.914,0-3.473-1.602-3.473-3.514v-54.717C297.326,200.438,298.885,198.837,300.799,198.837z M367.08,173.347h-19.351v80.206    h19.351V173.347z M344.217,166.318h26.422c1.961,0,3.512,1.602,3.512,3.515v87.235c0,1.912-1.551,3.514-3.512,3.514h-26.422    c-1.96,0-3.519-1.602-3.519-3.514v-87.235C340.698,167.919,342.257,166.318,344.217,166.318z M168.23,467.704h-24.686v-17.883    c0-1.957,1.552-3.559,3.512-3.559h62.815l17.522-66.595h87.414l17.529,66.595h62.769c1.915,0,3.513,1.602,3.513,3.559v17.883    h-24.691v-14.368H168.23V467.704z M47.501,184.958c0,1.957-1.605,3.514-3.519,3.514c-1.954,0-3.512-1.557-3.512-3.514V73.033    c0-7.874,3.203-15.08,8.405-20.285c5.21-5.205,12.412-8.452,20.246-8.452h64.321c1.96,0,3.559,1.602,3.559,3.559    c0,1.913-1.599,3.514-3.559,3.514H69.121c-5.919,0-11.346,2.447-15.26,6.361c-3.913,3.915-6.36,9.343-6.36,15.303V184.958z     M141.716,276.597c-1.915,0-3.512-1.557-3.512-3.47c0-1.958,1.598-3.559,3.512-3.559h257.836c1.961,0,3.559,1.601,3.559,3.559    c0,1.913-1.598,3.47-3.559,3.47H141.716z" style="fill-rule:evenodd;clip-rule:evenodd;"/>
</g>
</g>
<g id="Layer_1"/>
</svg>